<svg width="112" height="34" viewBox="0 0 112 34" fill="none" xmlns="http://www.w3.org/2000/svg">
<path d="M8.00002 11C8.00002 9.05508 8.77264 7.18981 10.1479 5.81455C11.5232 4.43928 13.3884 3.66666 15.3334 3.66666C17.2783 3.66666 19.1435 4.43928 20.5188 5.81455C21.8941 7.18981 22.6667 9.05508 22.6667 11C22.6667 12.9449 21.8941 14.8102 20.5188 16.1854C19.1435 17.5607 17.2783 18.3333 15.3334 18.3333C13.3884 18.3333 11.5232 17.5607 10.1479 16.1854C8.77264 14.8102 8.00002 12.9449 8.00002 11ZM19.3334 19H31.3334V26.512C31.3331 27.1768 31.1672 27.831 30.8506 28.4156C30.534 29.0001 30.0767 29.4966 29.52 29.86L25.3334 32.596L21.1467 29.86C20.59 29.4966 20.1327 29.0001 19.8161 28.4156C19.4995 27.831 19.3336 27.1768 19.3334 26.512V19ZM16.6667 30.3333H2.66669V27.6667C2.66669 25.5449 3.50954 23.5101 5.00983 22.0098C6.51012 20.5095 8.54495 19.6667 10.6667 19.6667H16.6667V30.3333Z" fill="white"/>
<path d="M56.9933 19.952H53.1293V26H50.0573V8.456H56.9933C60.5213 8.456 62.8013 10.76 62.8013 14.192C62.8013 17.576 60.4973 19.952 56.9933 19.952ZM56.3933 11.192H53.1293V17.216H56.3453C58.4573 17.216 59.5853 16.088 59.5853 14.168C59.5853 12.248 58.4333 11.192 56.3933 11.192ZM72.9934 14.144H75.9214V26H73.2094L72.9934 24.416C72.2734 25.544 70.7374 26.312 69.1534 26.312C66.4174 26.312 64.8094 24.464 64.8094 21.56V14.144H67.7374V20.528C67.7374 22.784 68.6254 23.696 70.2574 23.696C72.1054 23.696 72.9934 22.616 72.9934 20.36V14.144ZM84.0152 26.312C80.4872 26.312 78.0152 23.744 78.0152 20.072C78.0152 16.352 80.4392 13.784 83.9192 13.784C87.4712 13.784 89.7272 16.16 89.7272 19.856V20.744L80.7992 20.768C81.0152 22.856 82.1192 23.912 84.0632 23.912C85.6712 23.912 86.7272 23.288 87.0632 22.16H89.7752C89.2712 24.752 87.1112 26.312 84.0152 26.312ZM83.9432 16.184C82.2152 16.184 81.1592 17.12 80.8712 18.896H86.8232C86.8232 17.264 85.6952 16.184 83.9432 16.184ZM99.5106 14.096V16.808H98.4306C96.3186 16.808 94.9986 17.936 94.9986 20.24V26H92.0706V14.168H94.8306L94.9986 15.896C95.5026 14.72 96.6306 13.928 98.2146 13.928C98.6226 13.928 99.0306 13.976 99.5106 14.096ZM102.956 11.768C101.948 11.768 101.156 10.976 101.156 9.992C101.156 9.008 101.948 8.24 102.956 8.24C103.916 8.24 104.708 9.008 104.708 9.992C104.708 10.976 103.916 11.768 102.956 11.768ZM101.492 26V14.144H104.42V26H101.492ZM108.91 11.768C107.902 11.768 107.11 10.976 107.11 9.992C107.11 9.008 107.902 8.24 108.91 8.24C109.87 8.24 110.662 9.008 110.662 9.992C110.662 10.976 109.87 11.768 108.91 11.768ZM107.446 26V14.144H110.374V26H107.446Z" fill="white"/>
</svg>
